<?xml version="1.0" encoding="UTF-8" standalone="no"?>
<!-- Created with Inkscape (http://www.inkscape.org/) -->

<svg
   width="512"
   height="200"
   viewBox="0 0 135.46666 52.916668"
   version="1.1"
   id="svg493"
   inkscape:version="1.2.2 (b0a8486541, 2022-12-01)"
   sodipodi:docname="logo-black.svg"
   xmlns:inkscape="http://www.inkscape.org/namespaces/inkscape"
   xmlns:sodipodi="http://sodipodi.sourceforge.net/DTD/sodipodi-0.dtd"
   xmlns="http://www.w3.org/2000/svg"
   xmlns:svg="http://www.w3.org/2000/svg">
  <sodipodi:namedview
     id="namedview495"
     pagecolor="#505050"
     bordercolor="#eeeeee"
     borderopacity="1"
     inkscape:showpageshadow="0"
     inkscape:pageopacity="0"
     inkscape:pagecheckerboard="0"
     inkscape:deskcolor="#505050"
     inkscape:document-units="mm"
     showgrid="false"
     inkscape:zoom="1.2207031"
     inkscape:cx="256"
     inkscape:cy="59.392"
     inkscape:window-width="1600"
     inkscape:window-height="834"
     inkscape:window-x="0"
     inkscape:window-y="29"
     inkscape:window-maximized="1"
     inkscape:current-layer="layer1" />
  <defs
     id="defs490" />
  <g
     inkscape:label="Layer 1"
     inkscape:groupmode="layer"
     id="layer1">
    <g
       id="g690"
       transform="matrix(0.67347461,0,0,0.67347461,-199.31183,-122.28513)"
       style="fill:#000000">
      <g
         aria-label="m"
         id="text407"
         style="font-size:227.703px;stroke-width:18.9752">
        <path
           d="m 370.49719,210.21447 q 2.04932,7.5142 8.42501,7.2865 3.18784,0 6.60339,-0.91081 4.32635,-0.91081 16.39461,-5.23717 12.06826,-4.55406 12.97907,-5.69258 0.45541,-0.2277 -0.4554,-1.82162 -0.45541,-0.45541 -1.36622,-0.68311 -1.82162,0.2277 -11.15745,3.64325 -17.53313,6.83109 -22.31489,6.60339 -3.64325,0 -5.00947,-4.09866 -2.27703,-7.28649 -4.55406,-7.28649 -1.13851,0.2277 -1.82162,0.2277 -1.82163,0.68311 -10.47434,8.19731 -12.29596,11.15744 -14.34529,11.15744 -0.91081,0 -0.91081,-2.04932 0,-3.18785 0.2277,-5.92028 0.2277,-2.73244 0.2277,-5.69258 0,-2.27703 -0.91081,-2.96014 -1.59392,-0.91081 -2.96014,-0.6831 -1.82162,0.6831 -12.06826,11.84055 -5.69257,6.37569 -10.70204,11.38515 -0.2277,0 0.22771,-1.36622 0.4554,-1.36621 1.82162,-4.78176 1.13851,-3.41554 3.18784,-8.42501 4.55406,-10.92974 4.55406,-12.52367 l 1.36622,-3.18784 q 1.36622,-3.18784 1.36622,-4.78176 0,-1.59392 -1.36622,-1.59392 -2.50473,0 -3.87095,5.69257 -2.96014,8.88042 -5.69258,15.2561 -6.83109,16.16692 -6.83109,19.58246 0,0.68311 0.45541,1.59392 1.13851,1.13852 2.04933,1.13852 2.04932,0 13.66218,-12.75137 6.37568,-6.83109 11.61285,-12.97907 l 0.2277,7.5142 q 0,5.46487 0.22771,6.83109 0.2277,1.13851 1.36621,1.82162 1.59393,1.13852 2.73244,1.13852 3.64325,0.2277 16.85002,-12.06826 7.5142,-6.83109 8.65272,-7.05879 0.4554,0 1.59392,3.64324 z"
           style="font-family:Hedland;-inkscape-font-specification:Hedland"
           id="path703" />
      </g>
      <g
         aria-label="MOTANYA"
         id="text775"
         style="font-size:12.2008px;font-family:Hedland;-inkscape-font-specification:Hedland;letter-spacing:18.7172px;stroke-width:0.415937">
        <path
           d="m 314.55614,246.69939 q 0.12201,0.23181 0.23182,0.48193 0.11591,0.25011 0.21961,0.51243 0.10371,-0.26842 0.21962,-0.51853 0.1159,-0.25622 0.23791,-0.49413 l 2.28155,-4.4899 q 0.061,-0.11591 0.12201,-0.17691 0.0671,-0.0671 0.14641,-0.0976 0.0793,-0.0305 0.17691,-0.0366 0.10371,-0.006 0.23792,-0.006 h 1.5739 v 8.88828 h -1.81792 v -5.11213 q 0,-0.37213 0.0366,-0.80526 l -2.35475,4.5692 q -0.10981,0.21352 -0.29892,0.32333 -0.18301,0.1098 -0.42093,0.1098 h -0.28062 q -0.23791,0 -0.42702,-0.1098 -0.18302,-0.10981 -0.29282,-0.32333 l -2.36696,-4.5753 q 0.0244,0.21352 0.0366,0.42703 0.0122,0.20742 0.0122,0.38433 v 5.11213 h -1.81792 v -8.88828 h 1.57391 q 0.13421,0 0.23181,0.006 0.10371,0.006 0.18302,0.0366 0.0793,0.0305 0.1403,0.0976 0.0671,0.061 0.12811,0.17691 l 2.28765,4.5082 z"
           style="font-weight:900;font-family:Lato;-inkscape-font-specification:'Lato Heavy'"
           id="path706" />
        <path
           d="m 348.95746,246.31506 q 0,0.96386 -0.33552,1.79352 -0.32942,0.82965 -0.93336,1.44579 -0.60394,0.61004 -1.458,0.95777 -0.84795,0.34772 -1.88502,0.34772 -1.03707,0 -1.89113,-0.34772 -0.85405,-0.34773 -1.46409,-0.95777 -0.60394,-0.61614 -0.93946,-1.44579 -0.32943,-0.82966 -0.32943,-1.79352 0,-0.96386 0.32943,-1.79352 0.33552,-0.82965 0.93946,-1.43969 0.61004,-0.61004 1.46409,-0.95776 0.85406,-0.34773 1.89113,-0.34773 1.03707,0 1.88502,0.35383 0.85406,0.34772 1.458,0.95776 0.60394,0.61004 0.93336,1.43969 0.33552,0.82966 0.33552,1.78742 z m -2.11074,0 q 0,-0.65884 -0.17081,-1.18348 -0.17081,-0.53073 -0.49413,-0.89676 -0.31722,-0.36602 -0.78085,-0.56123 -0.46363,-0.19521 -1.05537,-0.19521 -0.59784,0 -1.06757,0.19521 -0.46363,0.19521 -0.78695,0.56123 -0.31722,0.36603 -0.48804,0.89676 -0.17081,0.52464 -0.17081,1.18348 0,0.66494 0.17081,1.19568 0.17082,0.52463 0.48804,0.89066 0.32332,0.36602 0.78695,0.56123 0.46973,0.18912 1.06757,0.18912 0.59174,0 1.05537,-0.18912 0.46363,-0.19521 0.78085,-0.56123 0.32332,-0.36603 0.49413,-0.89066 0.17081,-0.53074 0.17081,-1.19568 z"
           style="font-weight:900;font-family:Lato;-inkscape-font-specification:'Lato Heavy'"
           id="path708" />
        <path
           d="m 374.75111,241.87397 v 1.63491 h -2.50117 v 7.25337 h -2.06193 v -7.25337 h -2.50117 v -1.63491 z"
           style="font-weight:900;font-family:Lato;-inkscape-font-specification:'Lato Heavy'"
           id="path710" />
        <path
           d="m 401.61845,250.76225 h -1.59831 q -0.26841,0 -0.44533,-0.12201 -0.17081,-0.1281 -0.23791,-0.32332 l -0.52464,-1.5495 h -3.37962 l -0.52463,1.5495 q -0.061,0.17081 -0.23792,0.31112 -0.17691,0.13421 -0.43313,0.13421 h -1.6105 l 3.44062,-8.88828 h 2.11074 z m -5.70998,-3.39792 h 2.42796 l -0.81745,-2.43406 q -0.0793,-0.23181 -0.18911,-0.54294 -0.10371,-0.31722 -0.20742,-0.68324 -0.0976,0.37212 -0.20131,0.68935 -0.10371,0.31722 -0.19521,0.54903 z"
           style="font-weight:900;font-family:Lato;-inkscape-font-specification:'Lato Heavy'"
           id="path712" />
        <path
           d="m 422.14136,241.87397 q 0.13421,0 0.22571,0.0122 0.0915,0.0122 0.16472,0.0488 0.0732,0.0305 0.1403,0.0915 0.0671,0.061 0.15251,0.16471 l 4.22148,5.33785 q -0.0244,-0.25622 -0.0366,-0.49413 -0.0122,-0.24402 -0.0122,-0.45753 v -4.70341 h 1.81792 v 8.88828 h -1.07367 q -0.23792,0 -0.40263,-0.0732 -0.16471,-0.0732 -0.31722,-0.26842 l -4.19098,-5.29515 q 0.0183,0.23182 0.0305,0.45753 0.0122,0.21962 0.0122,0.41483 v 4.76441 h -1.81792 v -8.88828 h 1.08587 z"
           style="font-weight:900;font-family:Lato;-inkscape-font-specification:'Lato Heavy'"
           id="path714" />
        <path
           d="m 453.42539,247.38263 v 3.37962 h -2.06194 v -3.37962 l -3.22101,-5.50866 h 1.81792 q 0.26842,0 0.42703,0.12811 0.15861,0.12201 0.25622,0.31722 l 1.25668,2.58657 q 0.15251,0.31112 0.28062,0.57344 0.12811,0.26231 0.22571,0.51853 0.0915,-0.26232 0.21962,-0.52463 0.1281,-0.26232 0.27451,-0.56734 l 1.24449,-2.58657 q 0.0366,-0.0793 0.0976,-0.15861 0.0671,-0.0793 0.14641,-0.14031 0.0854,-0.0671 0.18911,-0.10371 0.10981,-0.0427 0.23792,-0.0427 h 1.83012 z"
           style="font-weight:900;font-family:Lato;-inkscape-font-specification:'Lato Heavy'"
           id="path716" />
        <path
           d="m 483.02571,250.76225 h -1.59831 q -0.26842,0 -0.44533,-0.12201 -0.17081,-0.1281 -0.23791,-0.32332 l -0.52464,-1.5495 h -3.37962 l -0.52463,1.5495 q -0.061,0.17081 -0.23792,0.31112 -0.17691,0.13421 -0.43313,0.13421 h -1.6105 l 3.44062,-8.88828 h 2.11074 z m -5.70998,-3.39792 h 2.42796 l -0.81745,-2.43406 q -0.0793,-0.23181 -0.18912,-0.54294 -0.1037,-0.31722 -0.20741,-0.68324 -0.0976,0.37212 -0.20131,0.68935 -0.10371,0.31722 -0.19522,0.54903 z"
           style="font-weight:900;font-family:Lato;-inkscape-font-specification:'Lato Heavy'"
           id="path718" />
      </g>
    </g>
  </g>
</svg>
